<svg xmlns="http://www.w3.org/2000/svg" viewBox="0 0 360 360" enable-background="new 0 0 360 360" width="360" height="360"><g fill="#111"><path fill-rule="evenodd" clip-rule="evenodd" d="M180 22c-89.5 0-162 72.5-162 162 0 71.6 46.4 132.3 110.8 153.7 8.1 1.5 11.1-3.5 11.1-7.8 0-3.9-.1-16.6-.2-30.2-45.1 9.8-54.6-19.1-54.6-19.1-7.4-18.7-18-23.7-18-23.7-14.7-10.1 1.1-9.8 1.1-9.8 16.3 1.1 24.8 16.7 24.8 16.7 14.4 24.8 37.9 17.6 47.1 13.5 1.5-10.5 5.7-17.6 10.3-21.7-36-4.1-73.8-18-73.8-80.1 0-17.7 6.3-32.1 16.7-43.5-1.7-4.1-7.2-20.6 1.6-42.9 0 0 13.6-4.4 44.6 16.6 12.9-3.6 26.8-5.4 40.5-5.5 13.8.1 27.6 1.9 40.6 5.5 30.9-21 44.5-16.6 44.5-16.6 8.8 22.3 3.3 38.8 1.6 42.9 10.4 11.3 16.7 25.8 16.7 43.5 0 62.2-37.9 75.9-74 79.9 5.8 5 11 14.9 11 30 0 21.7-.2 39.1-.2 44.5 0 4.3 2.9 9.4 11.1 7.8 64.3-21.4 110.7-82.1 110.7-153.7 0-89.5-72.5-162-162-162z"/><path d="M79.4 254.6c-.4.8-1.6 1-2.8.5-1.2-.5-1.8-1.6-1.5-2.4.3-.8 1.6-1.1 2.8-.5 1.2.5 1.9 1.6 1.5 2.4zm-2-1.5M85.9 261.9c-.8.7-2.3.4-3.3-.7-1.1-1.1-1.3-2.6-.5-3.4.8-.7 2.3-.4 3.3.7 1.1 1.2 1.3 2.7.5 3.4zm-1.5-1.6M92.3 271.2c-1 .7-2.6 0-3.6-1.4s-1-3.2 0-3.9c1-.7 2.6-.1 3.6 1.4s1 3.2 0 3.9zm0 0M101.1 280.3c-.9 1-2.8.7-4.2-.6-1.4-1.3-1.8-3.2-.9-4.1.9-1 2.8-.7 4.2.6 1.4 1.2 1.8 3.1.9 4.1zm0 0M113.1 285.5c-.4 1.3-2.2 1.8-4 1.3-1.8-.6-3-2-2.7-3.3.4-1.3 2.2-1.9 4.1-1.3 1.8.5 3 2 2.6 3.3zm0 0M126.4 286.5c0 1.3-1.5 2.4-3.4 2.5-1.9 0-3.5-1-3.5-2.4 0-1.3 1.5-2.4 3.5-2.5 1.8 0 3.4 1 3.4 2.4zm0 0M138.7 284.4c.2 1.3-1.1 2.6-3 3-1.9.3-3.6-.5-3.9-1.8-.2-1.3 1.1-2.7 3-3 2-.3 3.7.4 3.9 1.8zm0 0"/></g></svg>