<svg xmlns="http://www.w3.org/2000/svg" viewBox="0 0 400 88" enable-background="new 0 0 400 88" width="400" height="88"><path fill="#D16C15" d="M43.7.8c-2.4 6.2-13.9 7.3-20.6 11.3-6.7 4-8.5 8.8-8.5 12.5 0 3.8 2.4 5.3 2.4 5.3h6.1c-.6-2.6-.1-6.2 4.8-9.2 2.1-1.3 4.9-1.4 4.9-1.4-2.8-1.5-10.7-.5-13.4 3.3.4-3 4.9-7.4 12.1-7.4 7.3 0 9.7-4.8 9.7-4.8s3.4 9.3-4.3 12.1c-4.2 1.7-10.4 1.1-11.4 7.3h6c1.6-.8 2.4-2.6 2.4-2.6 19.3-2 9.8-26.4 9.8-26.4z"/><g fill="#fff"><path d="M291.1 42.9h-1.1c-1.4 2.5-2.9 4.5-4.8 6.1-2.2 2-4.5 3-6.7 3h-.1l-.4 2h4.6c-.1.3-4.3 21.3-4.3 21.3-.2.8-.3 1.6-.3 2.2 0 2 .9 2.9 3 3.3 2 .4 3.6.4 6.3.3h1.2l.5-2.1h-.1c-2.2-.1-3.3-.4-3.8-.8-.4-.4-.6-1-.6-1.8 0-.5.1-1.1.2-1.8 0 0 4-19.6 4.2-20.7h4l.4-2h-4c0-.2 1.8-9 1.8-9zM316.5 52l-.4 2h2.3c-.1.3-4.4 21.5-4.4 21.5-2.5 2.4-5 3.6-7.4 3.6-1.7 0-2.9-.5-3.7-1.5-1.3-1.6-1.6-4.6-.7-8.9l3.4-16.8h-8.4l-.4 2h2.3c-.1.3-3 14.9-3 14.9-.3 1.3-.4 2.4-.4 3.5 0 2.1.5 3.9 1.5 5.4 1.6 2.3 4.3 3.4 8.1 3.4 2.9 0 5.6-1 8.2-2.9-.1.4-.4 2.2-.4 2.2h8.4l.4-2h-2.3c.1-.3 5.4-26.5 5.4-26.5h-8.5zM357.8 39.1h-9.1l-.4 2.2h2.7c-.1.3-2.3 11.7-2.4 12.1-1.6-1.4-3.8-2.2-6.8-2.2-8 0-13.1 5.1-15.1 15-1.1 5.5-.6 9.5 1.4 12 1.6 2 4.3 3 8 3 2.7 0 5.2-.7 7.3-2.1-.1.4-.3 1.5-.3 1.5h8.3l.5-2.2h-1.9c-.1-.3 7.8-39.3 7.8-39.3zm-24.7 27.3c1.2-6.1 3.6-10.3 7-12.4.7-.4 1.4-.6 2.1-.7 2.7-.1 4.8 1.1 5.8 3l-4 19.6c-.4.9-2.9 3.1-6.6 3.1-.5 0-.9-.1-1.4-.3-3.3-1.3-4.3-5.5-2.9-12.3zM360.2 52l-.4 2h2.4c-.1.3-4.9 24.3-5 24.5h-2.4l-.4 2h11.6l.4-2h-3c.1-.3 5.4-26.5 5.4-26.5h-8.6zM370.5 40.6c-.3-.3-.6-.6-1-.8-.4-.2-.8-.3-1.3-.3s-1 .1-1.4.3l-1.3.7-1 1.1c-.3.4-.5.9-.5 1.3l-.1.7c0 .2 0 .5.1.7.1.4.3.8.6 1.1.3.3.6.6 1 .8.4.2.8.3 1.3.3s1-.1 1.4-.3l1.3-.7 1-1.1c.3-.4.5-.9.5-1.3.1-.5.1-.9 0-1.3-.2-.5-.4-.9-.6-1.2zM398 54.5c-1.7-2.1-4.6-3.2-8.6-3.2-9.6 0-15.5 5-17.5 14.9-1.1 5.4-.6 9.4 1.4 11.8 1.7 2 4.4 3.1 8.2 3.1 5.4 0 9.5-1.2 12.2-3.4 2.7-2.3 4.7-6.1 5.8-11.4 1-5.3.5-9.3-1.5-11.8zm-7.9 20.1c-1.8 2.8-4.2 4.3-7.2 4.4-2.7.1-4.5-1.4-5.2-4.4-.5-2.2-.4-5 .2-8.2.7-3.4 1.7-6.2 3.1-8.4 1.8-3 4-4.4 7.1-4.5 3-.2 4.6 1.2 5.3 4.6.5 2.3.4 5.1-.3 8.4-.5 3.1-1.6 5.9-3 8.1zM264.1 38.9c-3.8 0-6.9.8-10 2.6-3.3 1.9-5.4 4.7-6.1 8.1-1 4.3.2 7.4 3.6 9.6l9.7 4.6c3.4 1.7 4.8 4.1 4.1 7-.6 2.6-2 4.7-4.4 6.3-2.2 1.5-4.8 2.3-7.7 2.3-2.2 0-5.2-.9-6.7-2-1.6-1.2-2.3-2.7-2.2-4.6l.2-3h-2.8l-1.2 6c2.3 3.9 7.6 6.2 13.8 6.3 4 0 7.7-.9 11-2.7 3.8-2.1 6.1-4.9 6.9-8.5.7-3 .1-5.7-1.7-8.1-1.7-2.2-4.6-4-8.6-5.4-2.7-.9-4.5-1.9-5.6-2.9-1.6-1.4-2.1-3.3-1.5-5.8.4-2 1.7-3.8 3.6-5.4 2-1.6 3.8-2.3 5.9-2.3.8 0 2.7.1 4.2.5 1.5.5 3.2 1.3 3.5 2.1l.4 3.9h2.4l1.6-6.8h-.1c-4.6-1.1-9.5-1.8-12.3-1.8zM103.8 51.1l-5.8 29.7h5.2l5.8-29.7zM111.2 39.8h-5.2l-1.2 6.2h5.2zM117.1 39.8l-8 41h5.1l8.1-41zM120.2 80.8h5.1l5.8-29.7h-5.1zM128.1 39.8l-1.2 6.2h5.2l1.2-6.2zM149.6 54.9c3.7 0 6.1 2.2 6.2 5.6v.1h5.1v-.2c-.3-6.7-4.2-10.2-11.4-10.2-4.4 0-8.2 1.5-11.1 4.5-3.3 3.4-5.2 8.4-5.1 13.8.1 8.3 4.5 12.9 12.5 12.9 6.9 0 11.8-3.8 13.5-10.4v-.2h-5.1v.1c-1.4 3.7-4.5 5.9-8.4 5.9-6.2 0-7.2-5.2-7.3-8.3-.1-4.1 1.5-8.2 4-10.7 1.9-1.8 4.4-2.9 7.1-2.9zM180.8 50.4c-4.3 0-8.2 1.6-11.1 4.5-3.4 3.5-5.3 8.6-5.3 14.1.1 7.5 5.2 12.5 12.8 12.5 4.3 0 8-1.5 10.9-4.5 3.4-3.5 5.4-8.7 5.3-14.3-.2-7.9-4.6-12.3-12.6-12.3zm-3.2 26.6c-5 0-8-3-8.1-8-.1-4.1 1.6-8.5 4.2-11.2 1.9-1.9 4.2-2.9 6.7-2.9 4.8 0 7.7 3.1 7.7 8.2 0 3.3-1.2 8-4.2 11-1.7 1.9-3.9 2.9-6.3 2.9zM215.3 50.4c-4.1 0-8 1.9-10.3 5 .1-.6.8-4.3.8-4.3h-5l-5.8 29.7h5.1l3.2-16.4c.5-1.8 1.3-4.5 3.1-6.1 1.9-2.1 4.7-3.4 7.2-3.4 2.4 0 5 1 5.1 4 0 .9-.4 3.2-.6 4.5l-3.6 17.4h5.1l3.4-16.9c.5-2.3.8-4.6.8-5.8-.1-5.2-2.9-7.7-8.5-7.7zM86.1 58.1l-4.9-1.8c-3.6-1.4-6-2.5-5.6-6.3.5-5 6.1-6.4 9.3-6.4 4.9 0 7.5 1.7 8 5.1v.1h5.6v-.2c-.5-6.2-5.5-10-13.2-10-7.1 0-14.6 3.5-15.3 11.4-.5 5.1 2.1 8.6 7.9 10.6l5 1.8c4 1.5 6.4 2.7 6.1 6.7-.6 6.9-6.7 7.9-10.3 7.9-3.6 0-6.2-.8-7.8-2.4-1.2-1.2-1.9-3-1.9-5.2v-.1h-5.6v.1c-.2 3.5.7 6.4 2.7 8.5 2.5 2.6 6.6 4 11.9 4 3.5 0 14.9-.9 16.4-12.3.7-7.8-3.3-9.8-8.3-11.5zM7.3 66.3h12.1v4.9h-12.1zM7.3 59h12.1v4.9h-12.1zM29.1 66.3h12.1v4.9h-12.1zM0 73.6h48.6v7.3h-48.6zM29.1 59h12.1v4.9h-12.1zM7.3 44.5h34v4.9h-34zM41.3 37.2h2.4v-4.9h-38.8v4.9h2.4v4.8h34zM27.3 51.7c1.1.9 1.8 2.3 1.8 3.8v1.1h12.1v-4.9h-13.9zm-6 0h-14v4.9h12.1v-1.1c0-1.5.7-2.9 1.9-3.8z"/></g></svg>