<svg xmlns="http://www.w3.org/2000/svg" xmlns:xlink="http://www.w3.org/1999/xlink" viewBox="0 0 200 300" enable-background="new 0 0 200 300" width="200" height="300"><path fill="#fff" d="M23 0h30v54h-30z"/><defs><path id="a" d="M56 0h-48c-1.7 0-3 1.3-3 3v48c0 1.6 1.3 3 3 3h25.9v-20.9h-7v-8.1h7v-6c0-7 4.3-10.8 10.5-10.8 3 0 5.5.2 6.3.3v7.3h-4.3c-3.4 0-4 1.6-4 4v5.2h8.1l-1.1 8.1h-7v20.9h13.6c1.6 0 3-1.3 3-3v-48c0-1.7-1.3-3-3-3z"/></defs><use xlink:href="#a" fill="#3B5998"/><use xlink:href="#a" fill="#fff" transform="translate(100)"/><defs><path id="b" d="M62 108.4c-2.2 1-4.6 1.6-7.1 1.9 2.5-1.5 4.5-3.9 5.4-6.8-2.4 1.4-5 2.4-7.8 3-2.2-2.4-5.4-3.9-9-3.9-6.8 0-12.3 5.5-12.3 12.3 0 1 .1 1.9.3 2.8-10.2-.5-19.3-5.4-25.4-12.9-1.1 1.8-1.7 3.9-1.7 6.2 0 4.3 2.2 8 5.5 10.2-2-.1-3.9-.6-5.6-1.5v.2c0 6 4.2 10.9 9.9 12.1-1 .3-2.1.4-3.2.4-.8 0-1.6-.1-2.3-.2 1.6 4.9 6.1 8.4 11.5 8.5-4.2 3.3-9.5 5.3-15.3 5.3-1 0-2-.1-2.9-.2 5.4 3.5 11.9 5.5 18.9 5.5 22.6 0 35-18.8 35-35v-1.6c2.4-1.7 4.4-3.8 6.1-6.3z"/></defs><use xlink:href="#b" fill="#55ACEE"/><use xlink:href="#b" fill="#fff" transform="translate(100)"/><defs><path id="c" d="M63.4 214.2s-.6-4.4-2.5-6.4c-2.4-2.5-5.2-2.6-6.4-2.7-9-.6-22.4-.6-22.4-.6s-13.4 0-22.4.6c-1.3.1-4 .2-6.4 2.7-1.9 1.9-2.5 6.4-2.5 6.4s-.8 5.2-.8 10.4v4.9c0 5.2.6 10.4.6 10.4s.6 4.4 2.5 6.4c2.4 2.5 5.6 2.5 7.1 2.7 5.1.5 21.8.6 21.8.6s13.4 0 22.4-.7c1.3-.1 4-.2 6.4-2.7 1.9-1.9 2.5-6.4 2.5-6.4s.6-5.2.6-10.4v-4.9c.1-5.1-.5-10.3-.5-10.3z"/><path id="d" d="M25.4 235.3l17.3-9-17.3-9z"/></defs><use xlink:href="#c" fill="#CD201F"/><use xlink:href="#d" fill="#fff"/><path fill-rule="evenodd" clip-rule="evenodd" fill="#E0E0E0" d="M25.4 217.3l15.2 10.1 2.1-1.1z"/><use xlink:href="#c" fill="#fff" transform="translate(100)"/><use xlink:href="#d" transform="translate(100)"/></svg>