<svg xmlns="http://www.w3.org/2000/svg" xmlns:xlink="http://www.w3.org/1999/xlink" viewBox="0 0 104 104" width="104" height="104"><path fill="#A0A0A0" d="M92 52c0 22.1-17.9 40-40 40s-40-17.9-40-40 17.9-40 40-40 40 17.9 40 40zm-20 0c0-11-9-20-20-20s-20 9-20 20 9 20 20 20 20-9 20-20z"/><g transform="translate(52 52)"><defs><path id="a" fill="#A0A0A0" d="M10-38.8c-1.3 0-2.5-1.2-2.7-2.5l-1.2-9.2c-.1-.9-1-1.6-2-1.6l-8.1.1c-1 0-1.9.7-2 1.6l-1.2 9.2c-.2 1.3-1.4 2.5-2.7 2.5l19.9-.1z"/></defs><use xlink:href="#a"/><use xlink:href="#a" transform="rotate(45)"/><use xlink:href="#a" transform="rotate(90)"/><use xlink:href="#a" transform="rotate(135)"/><use xlink:href="#a" transform="rotate(180)"/><use xlink:href="#a" transform="rotate(225)"/><use xlink:href="#a" transform="rotate(270)"/><use xlink:href="#a" transform="rotate(315)"/></g></svg>