<svg xmlns="http://www.w3.org/2000/svg" xmlns:xlink="http://www.w3.org/1999/xlink" viewBox="0 0 50 50" width="50" height="50"><defs><g id="a"><path d="M0 0h1v1h-1zM2 0h1v1h-1zM4 0h1v1h-1zM6 0h1v1h-1zM8 0h1v1h-1zM10 0h1v1h-1zM12 0h1v1h-1zM14 0h1v1h-1zM16 0h1v1h-1zM18 0h1v1h-1zM20 0h1v1h-1zM22 0h1v1h-1zM24 0h1v1h-1zM26 0h1v1h-1zM28 0h1v1h-1zM30 0h1v1h-1zM32 0h1v1h-1zM34 0h1v1h-1zM36 0h1v1h-1zM38 0h1v1h-1zM40 0h1v1h-1zM42 0h1v1h-1zM44 0h1v1h-1zM46 0h1v1h-1zM48 0h1v1h-1z"/></g></defs><g fill="rgba(0,0,0,0.2)"><use xlink:href="#a"/><use xlink:href="#a" transform="translate(0 2)"/><use xlink:href="#a" transform="translate(0 4)"/><use xlink:href="#a" transform="translate(0 6)"/><use xlink:href="#a" transform="translate(0 8)"/><use xlink:href="#a" transform="translate(0 10)"/><use xlink:href="#a" transform="translate(0 12)"/><use xlink:href="#a" transform="translate(0 14)"/><use xlink:href="#a" transform="translate(0 16)"/><use xlink:href="#a" transform="translate(0 18)"/><use xlink:href="#a" transform="translate(0 20)"/><use xlink:href="#a" transform="translate(0 22)"/><use xlink:href="#a" transform="translate(0 24)"/><use xlink:href="#a" transform="translate(0 26)"/><use xlink:href="#a" transform="translate(0 28)"/><use xlink:href="#a" transform="translate(0 30)"/><use xlink:href="#a" transform="translate(0 32)"/><use xlink:href="#a" transform="translate(0 34)"/><use xlink:href="#a" transform="translate(0 36)"/><use xlink:href="#a" transform="translate(0 38)"/><use xlink:href="#a" transform="translate(0 40)"/><use xlink:href="#a" transform="translate(0 42)"/><use xlink:href="#a" transform="translate(0 44)"/><use xlink:href="#a" transform="translate(0 46)"/><use xlink:href="#a" transform="translate(0 48)"/></g></svg>